<?xml version="1.0" standalone="no"?>
<!DOCTYPE svg PUBLIC "-//W3C//DTD SVG 1.1//EN" "http://www.w3.org/Graphics/SVG/1.1/DTD/svg11.dtd">
<svg xmlns="http://www.w3.org/2000/svg">
<metadata>Copyright (C) 2023 by original authors @ fontello.com</metadata>
<defs>
<font id="fontello" horiz-adv-x="1000" >
<font-face font-family="fontello" font-weight="400" font-stretch="normal" units-per-em="1000" ascent="850" descent="-150" />
<missing-glyph horiz-adv-x="1000" />
<glyph glyph-name="style1-a" unicode="&#xe800;" d="M657 35c-9 0-15 2-18 6-3 4-4 10-4 18 0 16 3 40 10 72 8 30 12 55 12 74 0 55-4 97-13 126h-33c-29 0-67 1-113 2l-100 1h-144l3-41c0-33 5-73 16-122 3-20 6-40 9-61 4-20 5-38 5-54v-9c-7-8-14-11-22-11-18 0-33 21-43 65-11 44-16 96-16 158 0 25 1 49 3 73-16 1-26 3-32 8-6 5-9 12-9 22 0 8 3 13 7 16 5 3 13 5 25 6l-1 29 3 49c5 80 13 145 23 195 10 50 31 94 63 131 33 37 82 55 147 55 74 0 132-40 174-120 42-80 70-169 85-268 15-98 22-183 22-253 0-26 0-48-2-67-1-19-4-42-8-69-17-21-33-31-49-31z m-17 338c-14 131-38 233-72 307-35 76-87 113-156 113-52 0-90-24-115-72-24-48-39-99-44-153-5-55-7-116-7-184l394-11z" horiz-adv-x="885" />

<glyph glyph-name="style1-b" unicode="&#xe801;" d="M611 51c-147 0-261 8-342 24-21 385-39 619-56 699l-35-8c-18-4-36-8-53-12-17-4-35-10-54-18l-1 39c0 14 14 25 42 36 29 12 63 21 103 27 41 7 77 10 108 10 35 0 75-6 119-18 46-13 84-31 117-56 32-24 48-52 48-85 0-38-14-71-44-100-28-29-65-49-112-62 68-11 131-32 190-62 58-29 105-66 140-110 36-43 54-89 54-139 0-58-23-100-67-126-45-26-97-39-157-39z m-30 66c57 0 100 6 131 18 31 13 46 41 46 83 0 45-13 82-40 112-26 31-57 55-93 72-36 17-80 36-133 55-42 15-74 27-95 38-20 12-30 24-30 38 0 10 5 18 15 23 10 6 28 13 53 23 35 12 62 24 81 37 20 14 30 33 30 58 0 36-22 64-66 83-44 20-93 30-147 30-16 0-34-2-56-5 20-129 34-238 42-326 7-88 13-190 16-306 11-11 38-19 82-24 44-6 98-9 164-9z" horiz-adv-x="962" />

<glyph glyph-name="style1-c" unicode="&#xe802;" d="M492 47c-55 0-102 15-141 45-39 31-69 72-90 125-20 53-30 113-30 180 0 75 17 147 53 214 35 68 81 122 138 163 57 42 117 62 178 62 52 0 92-11 120-34 28-24 42-51 42-82 0-18-5-35-16-50-11-16-26-27-46-35-2 5-4 12-4 23 0 9 2 19 4 28 2 13 2 22 2 28 0 8-1 15-3 20-11 28-42 42-91 42-14 0-30-1-48-3-43-6-85-27-126-64-42-36-76-81-102-135-27-55-40-110-40-167 0-50 8-97 24-142 17-44 41-79 72-107 31-27 68-40 112-40 56 0 102 6 139 20 37 14 74 34 110 62 4 4 9 5 13 5 9 0 15-5 18-15 4-20-8-40-38-63-30-22-68-41-115-57-47-16-92-23-135-23z" horiz-adv-x="1000" />

<glyph glyph-name="style1-d" unicode="&#xe803;" d="M304 132c0 10 1 17 3 22 2 5 7 8 15 8 7 0 15-2 24-5 10-3 19-7 28-11 22-9 42-16 60-21 18-5 41-7 68-7 99 0 174 23 223 70 51 48 76 109 76 185 0 68-19 128-58 179-38 52-87 93-146 122-58 30-118 48-179 53l69-507c0-14-2-25-6-34-4-9-12-13-24-13-4-2-10 20-18 65-9 44-21 110-36 198-18 101-32 176-41 225-10 50-17 78-23 85-66 0-121-3-163-10-43-7-75-14-97-23-23-9-32-13-28-13-4 1-7 4-8 7-2 4-3 9-4 17-2 7-3 12-4 15 0 19 18 35 52 46 34 11 70 19 108 23 38 4 64 6 77 6 85 0 175-18 267-53 93-35 171-85 234-153 64-67 95-146 95-238 0-69-17-128-51-177-35-48-80-84-136-109-55-25-114-37-178-37-51 0-97 8-138 24-40 16-61 36-61 61z" horiz-adv-x="1000" />

<glyph glyph-name="style1-e" unicode="&#xe804;" d="M446 59c-67 0-115 12-145 37-30 25-45 70-45 134l17 269v258c0 20 4 33 12 39 8 6 26 9 53 9l81-2c103-6 203-9 300-9 21 0 38-6 50-18 12-12 19-28 19-49 0-4-1-7-4-9-2-3-5-4-8-3l-57 22-375-10c-5 0-8 1-9 1 4-6 5-12 5-16v-213c37-2 73-3 107-3 59 0 124 2 196 8 7 1 18 2 32 2 15 2 24 2 25 0 5-4 9-9 11-13 2-4 4-9 5-17 2-17-25-29-81-34-55-6-129-10-222-14-31 0-57 0-78-2-9-24-14-62-14-115l1-71v-78c13-10 27-17 42-20 15-4 40-5 75-5 36 0 71 2 105 6 35 4 56 6 63 7 67 8 117 12 150 12 19 0 32-2 39-6 8-3 12-9 12-18 0-53-107-79-321-79h-41z" horiz-adv-x="1000" />

<glyph glyph-name="style1-f" unicode="&#xe805;" d="M416 74c-13 2-25 3-36 3-11 1-18 1-22 1-3 1-5 2-5 5-5 25-9 48-12 67-2 20-4 38-4 55-1 24-3 48-6 71-3 24-8 56-17 95-45-7-75-11-90-11-16 0-28 3-36 8-8 7-12 17-12 30 0 8 4 12 13 12l36 4c6 1 31 4 77 10-2 23-5 70-10 142-2 58-6 104-11 138l-150-13c-11-7-20-11-26-11-10 8-16 17-18 28 19 21 65 38 138 52 74 13 153 20 239 20 107 0 199-12 276-35 77-22 118-57 125-104-25 0-49 3-72 8-24 6-53 14-88 25-45 16-86 27-124 35-36 8-78 12-124 12-30 0-62-2-98-7 0-74 2-168 6-282l42 4c128 10 203 15 225 15 10 0 17-1 21-2 4-1 8-3 10-5 1-24-22-41-68-52-47-9-120-16-221-20 4-39 11-90 23-154 10-59 16-107 19-144z" horiz-adv-x="1000" />

<glyph glyph-name="style1-g" unicode="&#xe806;" d="M771-23c-28 0-46 15-56 43-8 28-13 59-13 93l4 35c-39-25-86-45-139-59-53-15-109-22-167-22-43 0-80 10-113 29-33 20-58 47-77 80-17 35-26 74-26 117 0 65 25 127 77 186 51 59 114 107 188 144 75 37 145 59 209 63 32 4 59-4 81-21 23-17 34-41 34-71-17 0-37 4-60 13-3 1-12 3-25 7-14 4-28 6-42 6-57 0-117-16-181-49-64-33-117-76-160-131-42-53-64-110-64-169 0-28 9-52 26-73 17-20 39-36 64-47 27-10 53-15 80-15 63 0 115 2 156 7 40 5 76 19 105 42 30 23 45 58 45 105 0 23-5 38-15 47h-213c-12 0-22 6-33 17-9 11-14 22-14 34 0 20 6 30 18 30 9 0 25-4 45-12 20-9 36-14 50-14 17 0 44 3 81 8 7 0 18 2 35 3 17 2 32 3 46 3 13 0 26-6 39-18 14-12 20-24 19-39l-7-277c6-11 15-21 29-29 5-2 9-5 12-8 3-4 5-8 6-12 4-9 0-19-12-29-12-11-23-17-32-17z" horiz-adv-x="1000" />

<glyph glyph-name="style1-h" unicode="&#xe807;" d="M734 54c-19-4-33 5-41 28-7 23-12 57-12 102-2 66-4 122-7 166-3 45-7 85-14 121-73-34-144-66-215-94-70-28-105-42-105-41l3-248c0-12-7-19-21-22-19-4-31 6-38 31-5 26-9 66-11 120-2 49-4 84-7 104-22-11-41-16-56-15-3 6-5 19-5 38 6 2 14 5 22 8 10 3 16 7 20 11 5 4 7 11 7 19 0 39-4 99-11 180-9 73-13 133-13 180l1 54c2 6 5 9 8 11 4 1 9 2 15 2 13 0 20-4 20-13l48-410c22 5 58 19 108 42 51 22 128 59 233 109l5 259c0 30 11 46 34 46 9 0 15-4 18-11 4-7 5-19 4-35l-1-201c0-69 3-158 11-267 3-22 4-43 6-63 2-20 4-38 6-56 5-48 8-79 9-92 2-13 6-24 11-34-4-15-15-25-32-29z" horiz-adv-x="971" />

<glyph glyph-name="style1-i" unicode="&#xe808;" d="M558 60c-10-4-20-2-30 7-9 9-14 21-14 37-4 24-7 52-11 86-3 33-6 58-7 74-2 16-6 47-11 92-5 47-10 87-16 120-1 12-7 32-15 60-24 83-35 142-35 179 5 8 11 12 17 12 20 0 42-41 64-125 23-83 42-177 57-282 16-104 24-175 24-213 0-2 0-7 0-16 0-8-2-15-6-20-3-6-9-9-17-11z" horiz-adv-x="1000" />

<glyph glyph-name="style1-j" unicode="&#xe809;" d="M530 51c-106 1-184 24-233 71-49 47-74 108-74 182 0 66 18 99 55 99 7-3 10-7 10-11 0-3-2-7-5-12-2-6-4-11-5-15-4-14-6-27-6-40 0-33 11-66 34-99 24-32 55-59 94-79 39-20 81-30 126-30 33 0 59 14 77 43 19 30 29 75 29 135 0 37-3 75-9 115l-63 422c9 12 16 17 22 17 19 0 36-34 50-104 14-68 30-174 48-317l5-38c5-45 8-80 8-105 0-76-14-134-42-174-27-40-68-60-121-60z" horiz-adv-x="962" />

<glyph glyph-name="style1-k" unicode="&#xe80a;" d="M368 58c-16 0-28 19-34 57-6 39-11 108-15 207l-3 87c-2 31-8 77-17 141-1 8-4 32-10 73-5 41-8 77-8 108 0 5 2 11 7 18 5 8 11 12 18 12 10 0 17-5 20-15 4-9 7-19 8-28 1-9 2-15 2-17 5-14 8-33 11-57 2-23 4-48 6-74 3-52 6-89 9-112l38 53c52 77 98 139 140 185 42 46 84 69 124 67 3-3 4-7 4-12 0-8-4-17-12-27-8-11-20-24-36-41l-25-27c-9-10-35-40-80-88-31-33-57-61-77-84-20-24-35-45-46-64 36-49 77-92 125-130 49-37 113-82 191-133l36-23c14-5 26-13 34-22 8-9 13-18 13-28 0-5-1-10-4-14-5-10-12-15-20-15-9 0-25 6-47 17l-65 46c-70 46-130 89-180 129-49 40-84 78-103 114l7-90c7-82 11-137 11-165 0-20-2-34-5-40-3-6-9-8-17-8z" horiz-adv-x="1000" />

<glyph glyph-name="style1-l" unicode="&#xe80b;" d="M592 58c-80 0-140 13-181 40-41 28-61 79-61 152 16 400 42 590 77 572 17-1 26-28 26-82 0-32-5-102-17-207-14-122-21-211-21-268l1-35c0-17 5-35 16-52 11-18 25-28 42-29l235-21c9 0 13-9 13-25 0-14-4-24-11-30-6-5-18-10-35-13l-84-2z" horiz-adv-x="1000" />

<glyph glyph-name="style1-m" unicode="&#xe80c;" d="M746 554c0-34 2-68 5-100 4-32 10-78 18-136 15-98 23-177 23-235 0-12-2-19-7-22-5-2-11-3-17-3-6 0-11 0-13 0-11 0-20 1-27 3-6 3-11 11-15 22l-25 326c-3 33-6 99-10 198-34-40-68-70-102-91-34-20-68-30-103-30-51 0-101 36-151 107 2-12 3-28 3-48 0-20 0-32 0-35l-1-392c0-8-4-15-13-20-8-4-17-6-25-6-12 0-20 4-24 12-4 9-8 21-10 35v168c0 26 1 55 2 87 2 32 3 54 4 67 4 56 6 107 6 152 0 14-2 27-7 39-5 12-12 26-22 42-9 15-17 28-21 39-4 11-6 23-6 36 0 15 7 23 22 23 24 0 44-9 59-26 15-17 32-43 49-77 16-28 29-50 40-66 11-16 26-30 43-42 18-11 39-17 64-17 36-2 65 5 89 20 23 16 40 36 52 58 12 22 24 50 35 82 10 26 18 44 25 55 8 11 16 15 27 13 24 2 36-20 36-66 0-38-1-67-1-85l-2-87z" horiz-adv-x="1000" />

<glyph glyph-name="style1-n" unicode="&#xe80d;" d="M674 658c23 0 47-23 72-69 24-45 45-98 62-157 17-58 25-102 25-131 0-44-9-83-29-119-18-34-44-61-79-81-34-19-73-29-117-29-61 0-114 16-159 49-44 33-79 71-105 113-27 43-54 95-82 155l-17 36 3-291c0-17-4-34-10-51-6-16-16-24-30-24-14 0-25 8-31 24-7 17-10 33-10 49 0 51 4 125 12 221 8 96 12 167 12 215 0 11-1 22-2 34-2 12-3 21-4 26-4 21-6 40-6 57v5c3 0 10 2 22 5 13 4 20 6 23 6h12c30-137 75-263 134-379 60-116 142-173 246-173 49 0 86 14 110 43 26 30 39 69 39 119 0 42-7 81-21 116-13 36-34 80-61 132l-32 64c-3 4-4 8-4 12 0 6 3 11 7 15 5 5 12 8 20 8z m-426-524v3-3z" horiz-adv-x="1000" />

<glyph glyph-name="style1-o" unicode="&#xe80e;" d="M511 59c-66 0-126 13-178 41-52 27-93 65-123 115-29 49-44 107-44 171 0 44 9 85 26 122 18 36 43 66 77 87 34 23 73 34 119 34 86 0 163-15 230-45 68-28 121-70 159-124 38-55 57-118 57-189 0-47-17-87-53-119-34-32-76-55-127-70-49-16-97-23-143-23z m-22 62c80 0 147 12 201 36 55 24 83 64 83 120 0 98-38 171-113 220-75 49-171 74-288 74-56 0-95-17-119-50-22-33-33-78-33-135 0-47 11-91 33-132 24-40 56-72 96-97 41-24 88-36 140-36z" horiz-adv-x="1000" />

<glyph glyph-name="style1-p" unicode="&#xe80f;" d="M407 108c-15 61-26 122-34 184-8 62-16 164-22 307 0 9 3 18 10 25 7 7 15 11 24 11h10c4-27 7-69 9-127 0-7 1-28 2-65 2-36 6-70 12-102 93 9 167 27 222 54 56 27 84 66 84 116 0 63-28 115-84 155-56 40-140 60-253 60-47 0-87-9-120-26-6-3-10-8-12-16-2-7-4-18-6-31-2-15-4-25-6-33-2-7-7-10-13-10-7 0-12 5-15 15-1 11-2 37-2 76 0 22 15 40 46 53 30 12 69 19 117 19 140 0 244-22 312-66 68-44 102-112 102-203 0-49-19-90-59-122-39-33-86-58-142-74-56-15-110-22-161-22 1-10 3-19 5-27 1-8 2-15 3-20 11-55 17-97 17-126 0-18-2-32-7-42-4-11-13-14-28-11l-11 48z" horiz-adv-x="1000" />

<glyph glyph-name="style1-q" unicode="&#xe810;" d="M899-52c-12-12-26-18-42-18-22 0-48 12-78 34-29 22-75 62-136 119-9-2-22-4-38-6-15-3-30-5-46-7l-56-9c-6-1-16-1-28-1-61 0-117 15-167 44-51 31-91 71-120 122-30 50-45 104-45 162 0 55 11 105 33 150 21 44 50 79 86 104 37 26 77 38 119 38 82 0 159-20 232-60 72-39 131-89 175-151 44-61 66-121 66-182 0-35-14-67-41-96-26-30-62-57-106-81 32-27 67-53 104-78 27-17 47-32 61-44 13-12 23-25 27-40z m-433 190c19 0 36 1 52 2 16 2 35 5 57 9-34 37-60 69-78 93-16 26-25 47-25 64 0 14 6 24 18 32 14 0 28-8 43-26 16-18 36-44 60-79 21-33 37-55 48-66 47 12 84 29 112 50 29 22 43 47 43 77 0 49-17 98-50 148-34 49-81 90-143 123-61 34-130 51-208 51-57 0-102-22-135-65-33-43-49-97-49-163-4-48 6-90 28-129 24-37 55-67 95-89 41-21 85-32 132-32z" horiz-adv-x="1000" />

<glyph glyph-name="style1-r" unicode="&#xe811;" d="M821 19c-5-6-13-9-24-9-37 0-97 34-180 103-81 69-154 139-217 207 4-21 12-58 23-109 5-20 9-39 12-57 4-19 6-33 6-44 0-23-9-37-25-42-4-10-15 16-33 78-17 63-33 135-48 216-14 83-21 152-21 207 0 28 2 51 7 68 10 8 19 12 26 12 15 0 25-12 30-37 6-24 11-62 16-114l2-28c31 2 74 9 127 21 55 12 103 28 146 49 43 22 64 47 64 77 0 16-11 33-34 53-23 20-58 36-105 50-46 14-103 20-171 20h-39c-45 0-81-7-107-22-25-15-38-46-38-94-12 0-23 8-32 23-10 15-15 29-15 42 0 49 24 82 71 97 48 15 117 23 206 23 48 0 97-8 148-23 51-15 94-39 130-72 35-32 52-72 52-120 0-33-14-60-44-82-29-21-63-38-102-50-39-12-87-24-144-37-47-11-78-18-92-23 61-83 120-148 177-194 58-47 118-89 180-126 22-13 37-23 46-29 9-7 13-13 13-18 0-6-4-11-11-16z" horiz-adv-x="1000" />

<glyph glyph-name="style1-s" unicode="&#xe812;" d="M554 106c66 0 117 9 153 27 36 19 54 45 54 81 0 31-11 58-33 80-21 23-48 43-80 59-32 16-76 35-131 56-5 2-16 6-35 13-75 31-133 61-174 92-40 30-60 69-60 117 0 54 21 94 64 121 42 28 97 41 163 41 49 0 94-6 134-19 42-12 75-29 99-50 25-22 37-46 37-74-10-4-19-7-28-7-9 0-19 2-30 6-9 5-24 13-43 23-31 17-60 30-87 40-28 10-60 15-96 15-47 0-84-8-113-24-29-16-43-38-43-67 0-22 9-43 28-61 20-19 45-35 75-49 30-14 71-30 121-50 64-24 117-48 158-69 42-22 77-49 106-83 30-33 44-72 44-118 0-53-25-95-76-124-52-29-115-44-191-44-60 0-119 9-178 27-58 17-108 43-150 78-41 35-68 77-79 126 0 21 6 40 18 55 12 16 27 24 44 24 0-52 15-96 44-133 29-36 69-63 118-82 51-18 106-27 167-27z" horiz-adv-x="1000" />

<glyph glyph-name="style1-t" unicode="&#xe813;" d="M575 59c-22 0-38 11-47 35-9 23-16 54-21 93l-4 30c-12 64-22 128-29 191-7 64-14 141-21 232l-8 88c-48 0-116 2-205 6l-24 2c-11 0-19 6-24 15-4 11-6 25-6 42h83c139 0 265-5 377-15 112-11 168-32 168-64 0-9-2-15-5-18-2-3-8-5-17-5-32 3-81 9-149 21-15 2-33 5-55 8-21 3-46 6-73 10 0-116 17-295 52-536 1-12 7-29 16-51 4-10 8-20 11-31 4-11 6-20 6-29 0-11-1-18-5-21-3-2-7-3-12-3-4 0-6 0-8 0z" horiz-adv-x="1000" />

<glyph glyph-name="style1-u" unicode="&#xe814;" d="M464 59c-94 0-161 42-201 127-40 85-62 195-69 331-1 12-1 29-1 52 0 45 6 81 17 105 12 26 34 39 66 39 9 0 15-3 20-7 5-4 7-10 7-17 0-15-9-30-27-45-11 0-18-6-22-20-3-14-5-34-5-62 0-26 1-46 2-62 4-119 26-213 66-283 39-69 93-103 163-103 40 0 76 10 108 29 32 19 57 45 74 77 19 32 28 68 28 105-8 66-15 112-19 138-5 27-14 69-27 129-5 23-8 43-8 61 0 18 3 31 11 38 7 7 18 11 32 11 9 0 16-5 20-16 5-10 10-30 14-61 4-30 9-80 15-149 4-39 12-77 23-115 12-37 28-81 47-129 1-5 6-17 13-36 7-19 12-34 16-46 3-12 4-22 4-29 0-18-9-27-28-27-7 0-30 49-71 147-9-36-27-68-54-96-27-27-60-48-97-63-38-16-77-23-117-23z" horiz-adv-x="1000" />

<glyph glyph-name="style1-v" unicode="&#xe815;" d="M525 59c-4-2-8-3-12-3-4 0-8 2-13 4-21 32-37 59-49 82-11 23-30 63-56 120-29 67-66 162-111 284-45 122-67 197-67 224 0 8 2 13 5 16 3 4 7 6 12 6 4 0 7-1 9-2 10-6 25-34 46-84 22-50 51-124 89-224 61-163 110-284 146-362 18 17 43 66 75 149 32 83 61 175 87 276 27 101 43 186 48 257 35 2 53-12 53-42 0-52-14-132-43-240-29-109-64-210-105-302-40-91-78-144-114-159z" horiz-adv-x="1000" />

<glyph glyph-name="style1-w" unicode="&#xe816;" d="M698 60c-50 0-95 18-134 55-39 38-73 89-101 153-16-64-41-111-77-142-35-30-74-46-116-46-60 0-104 52-133 155-28 103-42 227-42 371 0 42 3 74 9 98 7 25 19 38 36 38 8 0 13-14 17-41 5-27 7-62 7-103 0-300 39-449 116-449 28 0 53 8 73 24 20 16 39 42 56 78 9 21 13 57 13 107l-1 75c4 7 11 11 22 11 7 0 14-2 20-6 7-3 12-9 15-17 5-42 16-85 33-129 18-44 41-80 70-111 29-29 64-44 104-44 55 0 95 12 118 36 23 25 35 58 35 99 0 91-7 163-20 218-12 55-28 107-48 156-8 23-15 40-19 51-3 11-5 23-5 35 6 13 14 19 23 19 18 0 37-21 58-63 21-43 40-100 55-172 15-71 23-148 23-230 0-46-10-86-29-120-18-34-44-60-76-78-31-19-65-28-102-28z" horiz-adv-x="1000" />

<glyph glyph-name="style1-x" unicode="&#xe817;" d="M230-13c-9 0-15 3-18 9-2 6-4 15-4 28 0 43 17 91 50 143 33 53 77 112 130 177 15 17 26 31 33 41l-41 65c-33 51-57 92-73 124-15 31-23 60-23 88 0 11 2 18 5 22 4 4 11 6 20 6 8 0 21-13 37-40 17-25 40-63 69-112 5-11 15-27 27-50 14-21 23-34 28-38 38 34 69 61 94 79 24 19 62 44 112 76 20 12 39 22 57 31 18 10 35 14 51 14 18 0 28-8 32-25-54-33-110-73-167-120-58-46-103-91-137-133 7-21 20-45 40-72 19-27 44-60 74-98 30-39 51-68 64-87 12-18 19-33 19-43 0-9-6-13-18-13-7 0-15 1-24 3-23 18-44 39-64 64-20 26-43 58-69 96-40 55-66 90-78 103-34-39-74-93-120-162l-27-38c-8-12-19-34-33-66-11-23-19-41-26-52-6-11-13-18-20-20z" horiz-adv-x="1000" />

<glyph glyph-name="style1-y" unicode="&#xe818;" d="M699 750c0 4 4 8 14 11 10 4 19 6 28 6 6 0 11-2 14-5 3-2 3-6 0-12-6-13-21-40-43-82-34-62-61-116-81-163-20-46-37-103-51-169-15-66-22-142-22-228l1-68c0-8-3-14-10-18-7-4-15-6-26-6-8 0-13 1-15 3-2 3-3 6-3 11 0 5 0 8 0 11-2 31-3 61-3 89 0 63 5 123 17 181-48 59-88 109-118 151-30 42-58 89-84 140-26 52-51 111-74 178 1-1 9 0 24 1 14 2 22 3 24 3l38-74c46-86 82-152 109-198 27-44 59-88 96-130 17 64 37 121 61 172 25 52 54 108 88 168l16 28z" horiz-adv-x="1000" />

<glyph glyph-name="style1-z" unicode="&#xe819;" d="M404 60c-19 6-33 14-43 24-10 10-15 22-15 36 0 21 15 55 45 102 29 48 66 105 110 170-34-4-58-8-72-9-82-12-134-19-157-22 0 31 10 51 30 59 49 10 87 18 114 22 26 4 67 8 121 14 50 66 74 123 74 172 0 38-16 67-48 87-32 21-76 31-134 31-35 0-65-3-89-9-23-6-47-13-71-23-21-9-36-13-45-13-3 0-6 1-9 5-1 4-2 8-2 13 0 14 8 28 24 41 17 12 40 23 70 31 30 8 64 12 103 12 77 0 139-16 186-47 47-31 71-74 71-127 0-51-23-107-69-171l45 2c36 0 65-4 85-10 20-6 32-16 37-30-10-15-21-25-34-29-12-3-29-5-52-5-4 0-14 2-30 4-17 2-45 4-83 4-13-21-40-64-81-129-18-27-34-52-48-75-13-23-20-37-20-44 0-12 14-19 41-19 33 0 64 2 91 5 28 3 58 8 90 14 20 4 40 8 61 10 22 3 42 5 61 5 10 0 16-3 20-9 4-4 6-12 6-21 0-11-2-20-5-25-3-5-9-9-21-12-28-8-71-16-128-24-57-8-107-11-151-11l-78 1z" horiz-adv-x="1000" />

<glyph glyph-name="style2-a" unicode="&#xe81a;" d="M764 583c5-34 10-84 15-150l2-62c0-116 15-220 46-311 4-13 6-29 6-49 0-11-1-27-3-46-1-13-5-23-14-30-9-8-20-12-34-12-1 0-6 1-13 3-20 4-35 13-46 26-10 14-15 30-15 49 0 7 0 11 1 15 0 4 0 11 0 20 0 14-1 28-2 40-7 31-17 72-30 124-5 22-15 33-30 33-6 0-12-1-20-4-24-7-46-14-66-20-18-7-34-12-49-16l-57-17c-33-9-64-17-92-22-29-7-51-23-64-50-13-24-32-56-56-97-15-27-35-41-60-41-12 0-24 3-36 9-11 6-20 14-28 24-12 13-18 27-18 39 0 9 2 18 7 28l83 168c91 186 145 297 163 334 50 97 119 164 205 201 18 9 37 13 56 13 24 0 46-6 66-19 21-12 37-29 48-51 16-33 28-76 35-129z m-387-303c109 19 202 34 279 46-1 77-4 138-7 182-2 44-8 89-17 134-42-5-74-26-96-62-37-60-73-121-108-184-5-10-16-34-31-70l-20-46z" horiz-adv-x="1000" />

<glyph glyph-name="style2-b" unicode="&#xe81b;" d="M687 498c-4-8-16-30-38-66 20-12 34-20 42-23 42-16 74-40 95-73 21-32 32-68 32-107 0-38-10-76-30-114-49-92-129-165-240-221-27-13-54-20-80-20-39 0-74 14-107 41-13 10-28 22-46 35-1-5-3-11-6-17-1-7-3-13-6-16-9-14-21-21-36-21-12 0-24 5-34 15-29 27-44 57-44 90 0 26 0 48-1 67-1 20-1 36-2 48-1 16-2 36-3 60 0 24-1 52-1 84 0 61 3 116 10 164 9 70 25 136 50 198 19 46 48 82 85 109 39 26 84 42 136 47 24 1 42 2 55 2 59 0 109-13 149-38 21-13 37-30 48-51 12-21 18-43 18-67 0-20-4-40-13-60l-12-24c-6-13-13-27-21-42z m-94 100c4 10 7 27 10 51l4 27c-24 10-47 15-68 15-19 0-36-3-52-8-34-11-63-29-86-52-23-22-41-47-54-74-13-27-26-61-39-101-9-31-14-66-14-104 0-21 1-52 5-92 1-12 3-31 4-58 1-22 6-66 14-134l4-39c5-2 13-3 24-5 16-2 27-5 35-10 7-4 15-10 22-20 7-9 13-16 17-20 48 9 88 29 122 58 34 30 68 68 101 116 25 38 40 72 47 103 2 12 3 23 3 32 0 22-6 38-18 49-11 12-27 17-47 17-12 0-23-1-33-5-36-10-73-33-111-68-19-17-38-25-57-25-12 0-25 3-37 11-16 8-28 18-39 28-10 11-19 24-26 41l27 19c29 21 51 36 66 45 78 41 136 109 176 203z" horiz-adv-x="1000" />

<glyph glyph-name="style2-c" unicode="&#xe81c;" d="M141 308c-1 6-1 15-1 28 0 31 3 62 9 91 7 30 16 62 28 97 12 33 35 66 68 99 34 33 71 59 113 80 42 22 79 33 113 33 34 0 68-13 101-39 32-25 53-53 62-85 2-10 2-16 2-19 0-12-3-21-10-28-7-5-16-8-27-8-9 0-15 0-20 1-3 0-6 2-11 5-23 13-46 19-67 19-41 0-81-21-121-64-68-71-102-156-102-254 0-35 3-69 10-102 8-37 22-64 42-82 21-16 49-25 83-25 12 0 25 1 40 4 50 6 97 21 139 45 42 25 89 58 140 99 12 9 34 29 64 60l24 25c10 10 19 18 26 22 8 4 16 7 22 7 10 0 23-5 38-16 17-12 26-27 26-45 0-13-5-25-14-36-3-6-12-19-26-40-14-20-28-38-42-54-14-16-27-30-41-41-73-65-150-108-230-131-35-9-71-14-106-14-65 0-122 16-173 49-49 33-88 76-116 129-28 53-42 109-43 166v24z" horiz-adv-x="1000" />

<glyph glyph-name="style2-d" unicode="&#xe81d;" d="M250 700c1-1-9 8-30 26-14 13-25 22-32 28 3 21 11 36 24 45 13 9 29 16 50 21 22 5 45 8 70 8 24 0 48-2 73-7 71-13 134-28 188-45 55-16 106-40 153-70 33-20 60-44 83-71 32-43 49-86 49-130 0-37-13-76-37-116-95-150-192-268-292-354-61-54-128-98-202-132-27-14-55-21-85-21-35 0-69 10-102 30-12 8-21 17-27 26-7 8-10 17-10 28l1 11 9 63c9 73 18 128 26 164l6 26c24 104 42 188 54 251 12 64 21 130 26 197l5 22z m159 14c-10 1-23 0-39-2l-26-4c19-16 33-30 42-42 9-12 13-25 13-38 0-4-1-9-2-17-11-47-25-104-42-172l-44-173c-19-78-36-151-50-218-2-9-4-19-5-30 0-10 0-18 0-23 7-3 11-5 12-5l16 6c120 59 222 140 307 245 34 44 63 86 86 125 24 39 42 80 54 124 4 10 5 22 5 37 0 25-6 47-19 67-12 20-29 35-50 46-80 36-166 60-258 74z" horiz-adv-x="1000" />

<glyph glyph-name="style2-e" unicode="&#xe81e;" d="M408 386c0-3 0-6 1-10 1-4 1-7 2-10 7-1 16-1 29-1 56 0 114 12 173 36 17 6 31 9 42 9 22 0 41-10 55-31 7-11 11-21 11-29 0-9-5-19-16-30-32-29-66-46-102-50-32-4-80-11-144-20l-84-12c-13-28-19-56-19-82 0-38 13-70 40-96 27-25 64-38 110-40 47 0 108 3 181 10l18 1c20 0 37-5 49-14 14-9 27-25 39-48-9-19-21-32-37-39-16-7-37-12-63-15-26-3-56-5-90-5-73 0-138 12-197 35-103 40-169 109-198 207-4 14-6 28-6 44 0 16 0 25 0 28 0 28-13 48-39 60-22 12-39 24-51 35-11 11-18 28-21 51l135 8 62 176c1 6 3 13 4 21 3 9 5 15 8 20 7 16 10 29 10 40 0 16-7 30-22 42-6 4-11 11-15 21-3 12-6 20-9 27l26 8c13 3 22 6 28 9 3 1 10 4 20 8 10 5 16 10 18 16 6 13 12 22 20 27 9 5 20 7 32 7 8 0 20 0 36-2 4 0 9-1 14-4 6-1 10-4 13-7 19-19 39-32 61-38 23-7 49-10 80-10h51 101c68 0 119-1 152-2 18-1 40-9 68-23 4-2 8-7 10-14 4-7 5-13 5-20 0-3-3-7-8-12-6-4-11-6-16-8-54-14-95-23-123-25-44-4-108-9-195-16-20-1-52-3-96-6-3 0-9 1-17 3-8 2-14 3-18 3-29 0-48-12-56-37-22-64-42-128-61-191l-1-5z" horiz-adv-x="1000" />

<glyph glyph-name="style2-f" unicode="&#xe81f;" d="M447 474c-23-43-38-77-45-102-7-25-12-54-17-89 8 0 21 0 40 0 18 1 30 2 36 3l68 14c17 4 32 7 44 10 13 3 37 7 71 13 15 2 32 4 49 5 18 0 30 1 35 1 19 0 34 0 43 1 14 0 24-2 29-7 23-20 35-37 35-52 0-9-4-16-11-20-7-4-18-9-33-13l-112-24-233-64c-4-1-8-2-12-5-3-1-7-3-11-3-25-6-42-11-51-15-8-3-13-9-16-18-1-9-2-26-2-51v-48c0-22-1-38-3-50-4-40-19-60-44-60-14 0-29 6-47 16-20 12-35 25-45 40-10 15-15 32-15 52 0 8 1 13 1 17 7 56 11 98 14 125 2 23 5 52 9 88 4 36 9 77 16 124 10 75 36 140 78 197 42 57 98 109 167 156 68 47 136 77 204 90 13 3 29 5 46 5 53 0 98-20 136-60 15-15 23-28 23-40 0-4-2-11-6-19-11-17-25-25-43-25-7 0-14 1-21 4-4 1-9 3-15 4-6 2-10 4-14 5-13 10-29 15-46 15-24 7-51 2-81-14-29-16-70-44-121-84-27-20-51-42-71-68l-29-54z" horiz-adv-x="1000" />

<glyph glyph-name="style2-g" unicode="&#xe820;" d="M687 744c44-6 81-28 111-68-11-16-22-27-34-34-11-6-25-10-42-11-70-1-129-3-179-8-49-5-101-21-156-48-54-27-85-71-92-131-22-44-33-96-33-155 0-30 4-69 11-116 10-61 40-91 90-91 13 0 23 0 30 2 43 7 85 23 127 48 24 15 48 32 72 52 24 20 39 31 44 34l31 26c9 8 15 15 19 21 5 7 7 16 7 27 0 4-1 10-2 18-27-3-67-6-120-9l-35-2c-15-2-38-3-68-5-33 0-59 8-78 23-19 16-33 42-44 78 3 1 6 4 9 7 3 3 6 5 8 5l42 5c92 11 162 18 210 20 39 2 85-1 137-10 72-12 108-45 108-99 0-20-4-41-12-63-4-12-10-26-19-42-19-39-44-73-76-102-32-28-71-56-116-82-36-22-68-39-95-51-27-12-56-19-86-21-8-1-19-2-34-2-70 0-133 24-190 71-28 24-49 50-64 77-15 28-23 60-26 95-1 24-2 41-2 50 0 46 6 88 17 127 11 40 32 102 63 186 32 68 82 116 152 143 69 28 143 42 220 42 33 0 65-2 95-7z" horiz-adv-x="1000" />

<glyph glyph-name="style2-h" unicode="&#xe821;" d="M597 379c-19-1-33-2-42-2-59-4-105-9-137-13-17-4-39-25-64-65-22-34-37-87-45-160l-13-43c-4-14-10-27-18-37-5-6-11-11-19-15-7-3-15-4-23-4 4 0 2 4-5 13-16 21-28 39-36 51-7 14-11 29-11 46 0 7 2 16 4 25 4 12 6 24 7 36 2 5 3 12 5 21 2 9 4 17 6 24 2 7 4 14 4 20 0 18-10 34-28 50-27 24-41 45-41 64 0 22 18 43 53 62 3 2 8 5 13 9 7 4 12 6 17 7 17 4 29 12 36 23 8 11 15 27 20 47 16 52 32 109 51 170l13 43c2 6 6 16 13 31 35 1 60-8 75-28 15-20 22-46 22-78 0-5 0-12-2-22l-11-48-7-26-12-64 64-5 152-13 41 126 9 41c24 30 44 37 62 21 16-15 31-32 43-51 13-19 19-40 19-64 0-23-7-53-20-89 6-4 14-7 22-10 9-3 15-4 18-5 25-7 44-16 58-25 14-10 22-27 25-52-9-15-22-25-38-30-16-5-35-6-57-4-8 1-18 2-31 2-17 0-29-4-35-11-5-7-12-24-20-51l-14-46c-20-63-34-113-42-150-8-38-14-77-17-118 0-3-1-10-1-20 0-10-3-18-8-23-4-7-12-10-22-10-27-2-43 12-48 42-20 43-29 83-29 123 0 16 1 29 2 38 9 51 21 116 35 196l7 51z" horiz-adv-x="1000" />

<glyph glyph-name="style2-i" unicode="&#xe822;" d="M304-34c-17-4-33-7-47-7-39 0-75 17-111 51 5 17 13 30 24 38 12 9 23 16 34 20 11 5 19 8 23 10 43 18 88 34 135 48 20 6 33 19 38 38 14 49 25 97 33 144 8 48 18 113 29 194l5 37c1 2 1 6 1 11 0 16-8 28-25 34-6 3-12 7-19 12-8 7-13 12-17 15l-29-15c-23-10-50-23-79-38-11-6-21-8-33-8-12 0-24 2-38 8-13 6-20 10-23 11-7 3-13 8-18 14-4 7-6 13-6 21 0 9 3 18 10 27 9 13 22 26 41 40 72 53 148 80 228 80 36 0 73-5 109-15 33-11 63-20 87-27 26-6 47-12 64-17l76-21c1 0 4-1 9-1 6-1 10-3 12-5 5-4 10-10 15-17 5-6 10-12 13-16-4-3-10-8-17-14-6-6-12-10-18-10-6 0-16-1-30-1-10 0-26 1-47 3l-26 1-85 9-6-43c-11-75-20-135-28-179-6-38-17-90-31-154l-15-71c55 7 92 12 111 14 43 5 75 7 97 7 26 0 48-3 66-10 18-8 30-22 37-45-8-10-17-18-27-23-10-4-20-8-30-10-10-3-16-4-18-5l-23-7c-48-15-81-23-99-26-37-5-74-13-110-24-35-10-79-24-132-42-34-12-71-24-110-36z" horiz-adv-x="1000" />

<glyph glyph-name="style2-j" unicode="&#xe823;" d="M264-19c-32 14-56 35-75 63 15 20 34 29 55 29 11 0 22-2 34-6 13-4 21-7 25-8 23-8 48-12 73-12 41 0 79 9 114 29 36 19 63 45 81 78 45 84 68 184 68 297 0 52-5 113-14 183-23-1-43-5-60-12-17-8-39-19-66-35-19-11-38-16-59-16-13 0-24 2-35 5-9 2-18 6-27 12-9 6-15 13-18 20-3 5-4 10-4 16 0 8 3 16 8 23 6 7 13 13 21 17 60 28 117 53 170 73 13 4 29 7 47 8 17 2 29 4 37 6 24 6 44 9 60 9 33 0 63-12 89-35v-69c1-22 1-56 1-102v-42l-1-33c-2-71-5-132-11-181-5-49-17-97-36-144-21-52-49-94-84-126-34-32-78-54-132-64-41-9-81-13-117-13-52 0-100 10-144 30z" horiz-adv-x="1000" />

<glyph glyph-name="style2-k" unicode="&#xe824;" d="M344 480c2-2 3-3 5-4 2 0 3-1 5-2 29 22 61 46 95 70l262 186c9 6 22 9 40 9 14 0 28-3 41-8 13-5 23-12 29-21 4-7 7-14 7-21 0-11-7-22-19-35l-132-112-34-27c-38-31-67-54-85-71-11-10-20-18-25-25-5-7-8-13-8-21 0-9 7-25 21-48l21-33c53-85 98-155 136-209 38-54 81-106 127-155l21-23c-14-11-26-16-36-16-10 0-19 3-28 10-55 41-104 83-148 125-43 43-80 91-111 142-16 25-36 54-60 86-2 3-12 19-31 46l-35-29c-44-35-77-64-100-85-7-7-13-16-17-28-4-11-6-22-7-33-1-13-1-33-1-59l1-119c0-18-2-34-6-46-3-12-11-23-24-31-29 11-49 19-60 27-10 7-17 16-21 28-4 12-6 32-6 60l-5 62c-4 33-6 62-6 87 0 38 3 75 8 113 7 38 16 86 28 143 16 81 34 155 55 223 10 30 23 60 40 92 16 33 26 53 30 59 5 11 11 18 16 23 7 5 14 7 22 7 12 0 30-6 55-18 12-5 20-11 24-15 5-5 7-11 7-18 0-8-2-18-7-32l-41-116c-5-18-14-44-27-79-3-10-9-29-16-59z" horiz-adv-x="1000" />

<glyph glyph-name="style2-l" unicode="&#xe825;" d="M482 2c22 4 66 14 134 28l93 19c10-10 19-19 26-27 7-8 11-15 11-21 0-6-3-13-10-19-6-6-19-17-38-31-2-2-5-5-8-9-3-4-6-6-9-7l-32-8c-27-8-52-14-73-18-21-5-42-7-64-7-77 0-140 22-188 68-19 17-33 34-44 50-9 18-14 37-14 57 0 9 0 15 1 19 13 79 27 146 43 202 17 60 48 164 92 309 9 35 24 86 45 155 6 18 13 31 23 38 10 8 25 10 44 9 4 0 8-1 11-1 4-1 8-2 12-2 50-4 75-28 75-72 0-11-2-22-5-34-7-26-19-60-36-104-65-164-115-323-150-476-5-19-7-39-7-60 0-39 17-59 51-59 7 0 13 1 17 1z" horiz-adv-x="1000" />

<glyph glyph-name="style2-m" unicode="&#xe826;" d="M421 690c8-2 28-32 58-92 31-60 68-136 112-231l38-80c17 18 33 39 47 63 15 25 33 58 54 100 25 47 42 78 52 91 38 59 80 121 125 186 5 9 15 15 30 18 2 1 6 1 12 1 19 0 40-8 63-24 24-16 40-32 47-49 2-3 2-9 2-18 0-8 0-14-1-18-1-7-3-16-6-27-1-11-3-23-5-38-25-195-44-341-55-439-3-22-5-47-5-75l-2-39c-1-8-1-17-1-27 0-11-1-18-4-22-2-4-7-6-13-6-5 0-12 1-22 4-25 5-45 15-58 30-14 15-22 36-23 62-1 14-1 35-1 64 0 29 0 74 2 135l1 66 3 95c-8-6-26-32-56-76-28-43-57-88-85-135-28-47-46-84-55-109-8-20-16-35-24-45-7-9-16-14-26-14-10 0-22 4-38 13-43 26-69 63-79 109-15 71-34 145-56 222-4 15-12 34-24 59-11 25-19 40-22 47l-15 31c-117-155-196-298-238-427-8-27-16-47-23-59-7-11-15-17-25-17-15 0-37 14-65 41-21 19-32 41-32 65 0 13 2 25 7 38 34 99 84 193 150 282l37 49c51 67 89 119 114 156 19 28 45 42 77 42 6 0 15 0 28-2z" horiz-adv-x="1070" />

<glyph glyph-name="style2-n" unicode="&#xe827;" d="M251 532c-3 28 1 54 12 78 12 24 29 47 51 69l73 6c11 2 18 3 20 3 12 0 27-15 46-45 1-5 3-11 5-18 1-6 4-11 7-15l139-194c21-26 41-54 61-82l21 66c25 84 48 152 69 204 22 52 50 102 84 150l58-9c15-12 20-28 15-48-7-29-14-50-22-65-20-48-36-98-48-148-13-50-28-113-44-189-2-10-5-26-9-47-7-32-19-56-37-72-19-15-44-23-76-25-32-1-60 12-83 40-24 29-54 67-90 116l-24 33c-21 28-54 71-98 127l-11-52c-12-57-19-103-22-135l-7-146c-1-16-1-36-2-61-1-24-3-52-5-85-1-24-9-45-25-62-15-18-35-30-58-36-12-4-27 0-44 9-17 9-27 19-30 31-6 21-9 40-9 56 0 14 2 27 6 38 8 19 12 50 15 91 1 26 3 45 6 58 10 73 26 175 48 305 1 6 2 14 5 25 3 11 4 21 3 29z" horiz-adv-x="1000" />

<glyph glyph-name="style2-o" unicode="&#xe828;" d="M195 544c31 52 80 97 145 136 52 32 113 47 181 47 49 0 96-8 142-25 46-16 83-39 113-68 10-11 21-21 33-30 19-16 30-26 33-30 40-43 60-90 60-141 0-40-13-81-39-122-33-55-68-104-104-145-36-42-76-78-121-107-76-51-149-76-219-76-20 0-41 3-62 7-70 16-126 48-169 98-43 50-65 107-65 171 0 49 14 98 41 147 1 4 5 8 9 12 6 4 10 7 14 9l27-13 27-13c24-14 40-25 48-34 8-9 12-21 12-37 0-11-2-26-4-46-1-7-1-17-1-31 0-29 3-65 11-107 1-12 6-21 14-27 9-7 20-10 32-10 7 0 12 1 16 1 38 8 70 16 96 26 27 9 52 24 73 43 40 34 75 67 105 99 29 32 55 67 78 104 15 25 22 50 22 74 0 20-4 40-13 59-9 19-21 41-38 65-28 38-65 57-109 57-16 0-33-2-50-7-5-2-31-10-76-25-5-2-10-3-16-5-5-2-10-3-16-5l-136-39c-18-6-45-14-82-23l-12 11z" horiz-adv-x="1000" />

<glyph glyph-name="style2-p" unicode="&#xe829;" d="M582 268c-15-6-27-9-37-9-17 0-34 6-50 18-15 12-28 29-39 49l34 22c38 26 67 45 85 59 62 48 115 93 161 134 9 7 19 22 31 45l17 28-22 11c-2 1-8 3-16 6-8 4-15 7-21 7-69 8-147 14-234 20-27 2-45-13-53-45l-100-467c-6-24-10-45-14-63-3-18-6-33-8-45l-11-54c-3-12-8-23-15-31-8-7-18-11-32-12l-15-1c-15 0-26 4-33 11-5 7-8 20-7 38l3 48c4 95 10 165 18 213 4 34 11 72 20 114 10 41 16 68 19 81 11 47 19 82 24 106l-62 11c-10 20-15 38-15 54 0 25 12 51 36 78 17 19 37 34 60 46 24 12 48 20 72 24 36 4 68 6 96 6 110 0 221-23 334-69 14-6 27-15 41-27 13-11 22-18 26-21 31-27 47-54 47-83 0-19-6-40-18-64-6-13-17-29-32-46-75-82-171-146-290-192z" horiz-adv-x="1000" />

<glyph glyph-name="style2-q" unicode="&#xe82a;" d="M521 94c-7-4-18-12-32-24-15-12-22-18-22-18l51-4c28-2 48-2 57-2 47 0 93-5 138-15 46-9 98-23 157-42 6-1 12-6 17-13 7-6 10-12 10-17-1-6-5-13-11-19-6-7-11-11-17-12-20-4-38-6-55-6-7 0-16 1-28 2-34 8-69 11-104 11-30 0-58-1-85-5-27-4-65-10-117-18-24-4-58-12-102-22-32-8-56-14-73-17-13-3-25-4-38-4-25 0-46 6-64 18-17 12-34 32-49 59 10 16 24 29 40 38 16 10 36 18 58 26 20 6 47 12 81 18 3 0 19 4 49 9-30 18-50 29-60 35-97 54-145 141-145 263l1 35c1 7 1 18 1 33 0 19-2 36-6 49-3 10-5 21-5 34 0 20 5 40 14 59 9 19 22 40 39 62 25 35 51 63 77 84 27 23 58 37 94 45 13 4 26 6 37 6 7 0 13-2 19-4 38-14 72-30 101-48 29-18 53-40 74-67 29-38 51-75 66-112 16-36 24-75 24-116 1-54-16-108-50-163-37-64-84-110-142-138z m-231 222c0-26 1-49 4-69 4-21 10-38 21-50 11-12 24-18 39-18 17 0 36 7 56 23 56 42 99 95 128 159 17 35 25 70 25 103 0 40-11 79-33 119-19 32-41 48-66 48-18 0-35-7-52-20-41-33-72-67-94-102-21-35-31-75-28-120v-39h-3l3-34z" horiz-adv-x="1000" />

<glyph glyph-name="style2-r" unicode="&#xe82b;" d="M842 55c3-8 4-15 4-23 0-12-4-23-12-31-7-7-17-11-30-11-5 0-9 1-12 2-36 8-64 16-85 26-16 7-46 25-89 54-33 22-60 38-82 50-28 16-58 26-90 32-14 2-48 6-102 12-24 1-41 3-52 4l-22-177 1-19c0-29-3-48-11-58-6-10-20-14-40-14-22 0-41 6-57 20-16 14-24 30-24 50 0 61 3 115 10 162 22 145 74 296 155 452 45 87 115 154 210 201 30 15 61 23 92 23 32 0 62-8 89-25 28-16 51-40 69-71 17-28 26-55 26-82 0-36-15-74-44-111-34-45-83-109-146-191l-78-101c1 0 2-1 2-3 2-2 4-4 5-5l27-15c66-36 115-64 146-85 30-18 63-27 97-27 11 0 19 0 24 1 3-4 6-10 10-18 4-8 7-15 9-22z m-444 238c33 37 66 75 99 115 33 40 63 78 89 113 10 14 19 29 26 45 7 17 14 34 19 51 7 17 11 29 13 36 1 2 2 6 2 12 0 6-1 14-3 24-1 9-3 16-3 20-59-17-112-53-160-108-48-54-86-115-114-181-27-66-41-124-42-172 16-1 28 2 37 9 10 7 22 19 37 36z" horiz-adv-x="1000" />

<glyph glyph-name="style2-s" unicode="&#xe82c;" d="M726 794c20-8 30-19 30-33 0-15-10-33-30-55-9 0-21 1-38 1-37 0-72-5-106-16-33-9-68-25-104-45-17-11-31-24-43-40-9-10-14-21-14-34 0-21 12-42 36-62 24-24 62-68 114-131l28-29c39-42 70-78 92-108 24-29 43-63 59-102 7-16 10-32 10-45 0-35-13-66-40-95-30-34-65-58-105-73-40-16-86-26-136-30-6-1-14-2-23-3-9 0-19-1-30-1-7 0-18 1-32 3-18-1-36 2-55 9-20 7-37 16-53 29-31 26-46 54-46 85 0 27 11 53 34 81 11-2 17-6 19-11 2-5 3-11 1-17-1-6-1-12-1-16 0-2 1-6 2-10 32-15 69-22 112-22 48 0 93 8 136 24 43 17 69 37 79 61 5 16-8 44-41 84-33 41-70 81-110 119-39 34-74 68-105 102-17 19-31 41-42 66-9 26-14 52-14 79 0 37 9 72 27 105 20 32 48 59 86 80 72 41 145 61 220 61 11 0 26-1 45-2 17-2 30-5 38-9z" horiz-adv-x="1000" />

<glyph glyph-name="style2-t" unicode="&#xe82d;" d="M410 354c2 33 4 63 7 90 2 28 5 53 7 76l10 96c-63-10-129-28-200-56-16-6-32-9-46-9-22 0-42 6-60 18-18 12-32 29-42 53 4 17 13 30 26 39 14 9 32 18 55 27 111 40 239 60 382 60 68 0 139-3 212-9 75-5 118-9 131-9l84-6c3 0 8 0 16 0 8 0 14-2 19-6 5-4 7-9 7-17 0-20-14-32-43-35-72-8-123-14-154-17-31-1-55-3-71-5-62-4-109-7-140-9-19-2-32-4-40-7-7-3-12-8-14-15-2-6-3-20-5-42-4-50-12-137-25-260-13-111-21-188-24-231-1-23-6-51-16-84-6-20-11-34-15-42-4-6-10-10-18-12-7-1-21-2-42-1-15 0-27 3-36 10-8 7-12 17-12 29 0 2 1 7 2 15 18 70 33 189 45 359z" horiz-adv-x="1020" />

<glyph glyph-name="style2-u" unicode="&#xe82e;" d="M835 276c-3-20-9-72-19-156-5-48-9-73-9-74l-106 16 22 260-14-10c-7-6-17-16-30-30-12-13-22-24-32-35-31-43-54-72-68-87-36-37-68-68-98-93-28-24-63-46-103-66-16-8-35-12-59-12-20 0-39 4-57 11-19 7-34 18-47 32-63 69-95 152-95 250 0 28 3 57 7 86 7 39 15 76 24 113 10 38 23 86 40 145 6 17 13 42 23 76 4 16 10 25 18 28 3 1 6 2 8 2 9 0 19-4 31-11 27-15 46-30 57-44 12-15 18-31 18-49 0-22-9-50-25-86-50-105-75-202-75-291 0-23 1-41 3-52 1-18 10-35 27-49 17-14 35-22 55-22 22 0 41 8 57 24 83 84 151 168 205 254 54 85 96 179 126 282 3 12 7 23 11 34l2 3c47-5 85-23 112-55 27-32 39-70 36-117-22-128-37-220-45-277z" horiz-adv-x="1000" />

<glyph glyph-name="style2-v" unicode="&#xe82f;" d="M187 412c-14 16-23 34-28 52-4 20-7 41-7 65v24c0 6 0 13 0 21 1 8 1 18 0 28 46 2 79-6 100-22 21-17 37-46 45-88 21-98 46-198 75-301 7-25 16-47 27-66 12-19 27-35 47-48l16 20c11 15 18 25 20 30 12 23 28 59 48 107l70 150c47 101 93 185 137 253 33 60 76 100 128 120 17 7 33 10 49 11 18 1 35-3 52-11 10-5 18-11 24-20 6-8 9-17 9-28 0-13-5-26-16-37-13-13-24-21-32-25-21-11-40-24-55-41-14-16-27-32-38-49-11-17-19-28-23-34-31-44-58-90-79-138-21-47-46-107-75-181l-21-55c-15-37-29-69-42-96-14-27-29-53-47-78-16-19-34-30-54-31-9-1-19 1-31 6-105 41-177 108-217 200-14 31-26 65-36 102-11 38-17 60-20 67-9 34-16 56-19 66-1 3-1 8-2 13-1 7-3 11-5 14z" horiz-adv-x="1000" />

<glyph glyph-name="style2-w" unicode="&#xe830;" d="M235 376c0 0 4-14 13-40l16-46 66 132c19 42 38 78 57 107 19 30 45 63 77 101 10 11 20 20 32 25 13 7 26 10 39 10 17 0 34-5 49-16 16-10 28-25 36-44 2-7 6-15 12-27 10-21 16-39 20-54 4-13 7-31 8-52 0-32 4-74 9-124l6-70c17 15 30 29 40 44 9 15 17 31 23 49 11 29 23 66 37 109l36 108c13 37 29 66 48 89 20 22 47 37 80 43 7 2 14 2 22 2 6 0 11-1 13-3 2-3 5-7 7-13 3-6 6-12 10-20 9-15 13-28 13-40 0-17-9-34-26-52-27-26-47-54-62-84-13-30-29-71-46-122-8-22-19-60-35-114-22-79-40-136-54-171-9-21-17-37-24-45-7-8-15-12-24-12-11 0-28 6-53 20-41 22-73 58-97 108-24 50-39 103-43 157l-2 27c-3 43-6 80-9 112-17-19-32-40-46-64-13-24-28-54-45-89-15-31-24-49-28-57-14-23-32-64-54-124-22-56-36-92-44-106-13-2-25-4-36-4-24 0-44 8-58 22-14 14-26 38-36 70-18 60-37 125-55 195-18 71-31 133-40 189-2 16-7 33-13 51-6 19-10 30-12 35l-12 35c-7 21-11 36-11 45 0 9 3 17 9 24 6 8 16 16 31 27 56-16 91-54 104-113 7-26 15-64 27-115l25-115z" horiz-adv-x="1010" />

<glyph glyph-name="style2-x" unicode="&#xe831;" d="M169-16c-5-1-11-2-17-2-6 0-11 0-14 0l-22 64 229 198c-24 48-57 117-98 205-13 28-19 57-19 86 0 21 4 49 13 84 30-2 58-15 83-38 24-23 42-51 51-85l10-36c6-28 11-48 15-60 4-8 10-19 18-34l16-29 37 40c67 72 119 131 159 179 40 48 76 99 108 153 20 3 37-1 52-9 16-9 34-22 53-40 15-14 23-33 23-56 0-12-2-25-7-38-5-12-12-22-21-32l-279-307c-2-3-3-6-5-10-2-4-4-9-7-14l35-22c36-23 60-37 69-43l148-85c13-8 21-17 25-27 2-4 4-9 4-13 0-9-5-15-14-20-8-4-20-5-33-4-47 7-93 20-137 40-44 20-88 45-133 77-11 7-21 13-29 18-8 4-15 7-22 7-4 0-11-3-19-7-8-5-17-11-27-18-76-55-157-95-245-122z" horiz-adv-x="1000" />

<glyph glyph-name="style2-y" unicode="&#xe832;" d="M218 521c-13 32-21 55-26 69-4 14-6 28-6 42 0 10 2 23 4 39 3 16 7 34 11 54l22 1c6 0 10-1 14-3l20-15c23-19 40-36 52-49 11-13 19-31 24-54 10-47 21-88 35-125 13-36 33-68 58-98 19-21 35-37 49-48 14-10 34-15 58-14 11 23 20 41 25 53l31 76c57 139 93 225 107 258 7 14 18 33 34 55 4 5 9 12 15 21 25-10 44-25 58-45 13-19 20-42 20-67 0-17-2-33-8-49-13-37-34-87-64-150-6-11-11-22-17-31-4-9-8-17-12-25-17-32-27-52-30-58l-31-69c-24-57-46-102-66-135l-16-25c-39-64-73-115-102-155-28-41-63-79-103-116-1 6-4 12-8 20-3 7-4 12-3 15 25 62 62 156 113 281 4 10 11 31 22 64-139 59-233 153-280 283z" horiz-adv-x="962" />

<glyph glyph-name="style2-z" unicode="&#xe833;" d="M435 434c38 56 82 122 131 198l41 64c-26 7-55 11-89 11-29 0-59-3-90-7-31-5-49-8-55-9-49-7-97-13-145-18l-15-1c-24 0-46 5-67 16-21 11-42 26-65 46-2 2-4 6-4 12 0 8 0 13 0 16l75 11c86 11 153 19 202 24 49 5 100 8 152 8 32 0 64-1 96-3 35-4 67-10 95-20 29-8 55-22 79-42 13-9 22-18 28-26 6-7 9-15 9-23 0-13-9-28-27-47-87-87-180-192-279-316-18-23-38-49-58-78-20-29-40-58-58-86l-41-58c-4-7-11-21-21-42l-12-24 652 39c1-3 2-8 2-14 0-26-14-42-41-49-79-18-138-30-178-35-25-3-65-7-117-12-51-5-90-9-118-13-38-6-98-18-180-35l-40-9c-25-4-44-7-56-7-21 0-40 4-56 12-35 15-52 36-52 63 0 16 7 34 20 54 127 177 221 311 282 400z" horiz-adv-x="1000" />

<glyph glyph-name="style3-a" unicode="&#xe834;" d="M928 50h-691l-110-200h-127l510 874h145l510-874h-127l-110 200z m-54 91l-291 510-292-510h583z" horiz-adv-x="1165" />

<glyph glyph-name="style3-b" unicode="&#xe835;" d="M4-150v874h728c55 0 99-5 132-14 34-9 59-22 77-39 18-17 31-39 37-64 6-26 9-56 9-89 0-24-2-46-7-64-4-19-9-35-16-49-7-13-15-25-23-34-9-10-18-17-27-23-21-15-46-23-73-25 34-2 65-10 91-25 11-6 22-14 33-24 11-10 21-22 29-36 9-14 16-31 21-50 5-19 8-41 8-66 0-30-1-58-4-84-3-25-9-47-18-67-8-21-21-38-37-53-16-16-38-28-65-38-27-10-61-18-100-23-39-5-86-7-141-7h-654z m618 91c43 0 79 1 110 2 32 1 58 4 79 8 22 5 40 11 53 19 13 8 23 19 31 33 7 13 12 30 15 49 3 19 4 43 4 70 0 21-1 40-4 55-3 16-8 29-15 40-8 11-18 20-31 26-13 7-31 12-53 16-21 4-47 6-79 7-31 2-67 3-110 3h-509v-328h509z m0 419c37 0 69 1 96 2 27 2 50 4 69 9 19 4 34 9 46 17 12 7 21 17 27 29 7 11 12 25 14 42 2 16 3 36 3 59 0 24-2 44-7 59-6 15-15 27-29 35-14 8-32 14-56 16-23 3-53 5-89 5h-583v-273h509z" horiz-adv-x="1029" />

<glyph glyph-name="style3-c" unicode="&#xe836;" d="M934 458c0 45-5 80-14 106-10 26-26 46-48 60-23 13-52 22-89 25-36 4-81 6-134 6h-251c-47 0-87-2-120-5-33-2-59-8-81-16-21-9-37-21-49-37-11-16-20-37-25-64-5-26-8-59-9-97 0-39-1-85-1-138 0-54 1-100 1-139 1-38 5-70 10-97 5-26 13-47 24-64 12-16 28-28 49-36 22-9 48-15 81-18 33-2 73-4 120-4h251c42 0 77 2 108 4 30 2 55 6 77 12 21 6 38 14 51 25 13 10 23 23 30 39 7 16 13 35 15 57 3 22 4 48 4 78h107c0-36-2-68-7-97-4-29-12-55-24-77-11-23-26-42-45-58-19-17-43-30-72-41-29-11-63-18-104-23-40-5-87-8-140-8h-251c-65 0-120 4-165 12-45 8-82 20-111 36-29 17-51 37-67 62-16 24-28 53-35 86-7 33-11 71-12 112-1 42-2 88-2 139 0 50 1 96 2 138 1 42 5 79 12 112 7 33 19 62 35 87 16 24 38 45 67 61 29 16 66 28 111 36 45 8 100 12 165 12h251c53 0 100-3 140-8 41-5 75-12 104-23 29-10 53-22 72-38 19-16 34-34 45-55 12-22 20-46 24-72 5-27 7-57 7-90h-107z" horiz-adv-x="1048" />

<glyph glyph-name="style3-d" unicode="&#xe837;" d="M660-59c48 0 89 1 122 4 33 3 61 8 82 16 22 8 39 20 51 36 11 15 20 36 25 61 6 26 9 58 10 95 1 37 2 82 2 134 0 52-1 96-2 134-1 37-4 69-10 94-5 26-14 47-25 62-12 16-29 27-51 35-21 9-49 14-82 17-33 2-74 4-122 4h-546v-692h546z m-655-91v874h655c66 0 123-4 168-12 46-8 84-19 113-35 30-16 53-36 69-60 16-24 28-52 35-85 8-32 12-69 13-110 2-40 3-85 3-135 0-50-1-95-3-136-1-41-5-77-13-110-7-32-19-60-35-84-16-24-39-44-69-60-29-16-67-28-113-36-45-7-102-11-168-11h-655z" horiz-adv-x="1068" />

<glyph glyph-name="style3-e" unicode="&#xe838;" d="M85-150v874h874v-91h-765v-291h728v-91h-728v-310h765v-91h-874z" horiz-adv-x="971" />

<glyph glyph-name="style3-f" unicode="&#xe839;" d="M103-150v874h838v-91h-729v-291h692v-91h-692v-401h-109z" horiz-adv-x="971" />

<glyph glyph-name="style3-g" unicode="&#xe83a;" d="M971 458c0 45-4 80-14 106-10 26-26 46-48 60-22 13-52 22-88 25-37 4-82 6-135 6h-287c-48 0-88-2-121-5-32-2-59-8-80-16-21-9-38-21-49-37-12-16-20-37-25-64-5-26-8-59-9-97-1-39-1-85-1-138 0-54 0-100 1-139 1-38 4-70 9-97 6-26 14-47 25-64 11-16 28-28 49-36 21-9 48-15 80-18 33-2 73-4 121-4h287c42 0 78 2 108 4 30 2 56 6 77 12 21 6 38 14 51 25 13 10 23 23 31 39 7 16 12 35 15 57 2 22 3 48 3 78v53h-429v90h537v-143c0-36-3-68-7-97-5-29-13-55-24-77-11-23-26-42-45-58-19-17-43-30-72-41-29-11-64-18-104-23-40-5-87-8-141-8h-287c-66 0-121 4-166 12-44 8-81 20-110 36-29 17-52 37-68 62-15 24-27 53-34 86-7 33-12 71-13 112-1 42-1 88-1 139 0 50 0 96 1 138 1 42 6 79 13 112 7 33 19 62 34 87 16 24 39 45 68 61 29 16 66 28 110 36 45 8 100 12 166 12h287c53 0 100-3 140-8 41-5 75-12 104-23 29-10 53-22 72-38 20-16 35-34 46-55 11-22 19-46 24-72 4-27 7-57 7-90h-108z" horiz-adv-x="1086" />

<glyph glyph-name="style3-h" unicode="&#xe83b;" d="M915 724h109v-874h-109v401h-801v-401h-109v874h109v-382h801v382z" horiz-adv-x="1029" />

<glyph glyph-name="style3-i" unicode="&#xe83c;" d="M431 724h109v-874h-109v874z" horiz-adv-x="971" />

<glyph glyph-name="style3-j" unicode="&#xe83d;" d="M325-150c-55 0-99 5-132 15-33 10-59 26-77 49-18 22-31 52-37 90-6 37-9 83-9 137v37h109v-37c0-45 3-81 8-108 5-27 13-47 24-61 12-14 27-23 45-28 19-3 42-5 69-5h255c36 0 66 3 90 9 23 7 42 17 56 31 13 14 23 31 28 52 5 21 8 45 8 74v619h109v-619c0-46-5-84-15-117-9-32-26-58-49-79-22-20-52-35-89-45-38-9-83-14-138-14h-255z" horiz-adv-x="971" />

<glyph glyph-name="style3-k" unicode="&#xe83e;" d="M840 724h164l-619-428 637-446h-163l-583 401h-145v-401h-110v874h110v-382h145l564 382z" horiz-adv-x="1029" />

<glyph glyph-name="style3-l" unicode="&#xe83f;" d="M121-150v874h110v-783h691v-91h-801z" horiz-adv-x="971" />

<glyph glyph-name="style3-m" unicode="&#xe840;" d="M111 651v-801h-109v874h182l509-765 509 765h175v-874h-110v789l-518-789h-111l-527 801z" horiz-adv-x="1379" />

<glyph glyph-name="style3-n" unicode="&#xe841;" d="M111-150h-109v874h192l801-765v765h109v-874h-146l-847 783v-783z" horiz-adv-x="1107" />

<glyph glyph-name="style3-o" unicode="&#xe842;" d="M723 744c66 0 121-4 165-12 45-8 82-20 111-36 29-16 52-37 67-61 16-25 27-54 34-87 8-33 12-70 13-112 2-42 3-88 3-138 0-51-1-97-3-139-1-41-5-79-13-112-7-33-18-62-34-86-15-25-38-45-67-62-29-16-66-28-111-36-44-8-99-12-165-12h-322c-66 0-121 4-166 12-45 8-82 20-111 36-29 17-51 37-67 62-16 24-27 53-35 86-7 33-11 71-12 112-1 42-2 88-2 139 0 50 1 96 2 138 1 42 5 79 12 112 8 33 19 62 35 87 16 24 38 45 67 61 29 16 66 28 111 36 45 8 100 12 166 12h322z m0-804c47 0 87 2 120 4 32 3 59 9 81 18 21 8 37 20 49 36 11 17 20 38 25 64 5 27 8 59 9 97 1 39 1 85 1 139 0 53 0 99-1 138-1 38-4 71-9 97-5 27-14 48-25 64-12 16-28 28-49 37-21 8-48 14-81 16-32 3-72 5-120 5h-322c-48 0-88-2-121-5-32-2-59-8-80-16-21-9-38-21-49-37-12-16-20-37-25-64-6-26-9-59-9-97-1-39-1-85-1-138 0-54 0-100 1-139 1-38 4-70 9-97 5-26 14-47 25-64 11-16 28-28 49-36 21-9 48-15 80-18 33-2 73-4 121-4h322z" horiz-adv-x="1124" />

<glyph glyph-name="style3-p" unicode="&#xe843;" d="M30 724h657c54 0 100-3 137-8 38-4 68-11 93-21 24-9 43-21 55-35 14-14 23-30 29-49 7-19 10-41 11-64 1-24 1-50 1-78 0-30 0-57-2-82-1-25-5-48-13-68-7-20-19-38-35-54-16-15-39-28-69-38-30-10-67-18-113-23-46-5-102-8-169-8h-472v-346h-110v874z m110-437h472c49 0 90 1 123 2 33 2 61 5 82 10 22 4 38 11 50 19 12 9 20 20 26 33 5 14 9 30 9 49 2 19 2 42 2 69 0 25 0 46-2 64 0 18-4 33-9 45-6 12-14 21-26 29-12 7-28 12-50 16-21 4-49 7-82 8-33 1-74 2-123 2h-472v-346z" horiz-adv-x="1019" />

<glyph glyph-name="style3-q" unicode="&#xe844;" d="M399 744h322c66 0 121-4 165-12 45-8 82-20 111-36 29-16 52-37 67-61 16-25 27-54 34-87 8-33 12-70 13-112 2-42 2-88 2-138 0-51 0-97-2-139-1-41-5-79-13-112 0-1 0-2 0-3l77-50-44-71-65 41c0-1-1-2-2-3-15-25-38-45-67-62-29-16-66-28-111-36-44-8-99-12-165-12h-322c-66 0-121 4-166 12-45 8-82 20-111 36-29 17-51 37-67 62-16 24-27 53-35 86-7 33-11 71-12 112-1 42-2 88-2 139 0 50 1 96 2 138 1 42 5 79 12 112 8 33 19 62 35 87 16 24 38 45 67 61 29 16 66 28 111 36 45 8 100 12 166 12z m0-804h322c47 0 87 2 120 4 32 3 59 9 80 18 22 8 38 20 50 36 4 6 7 13 11 20l-352 226 45 72 327-210c1 16 2 34 3 53 1 39 1 85 1 139 0 53 0 99-1 138-1 38-4 71-9 97-6 27-14 48-25 64-12 16-28 28-50 37-20 8-47 14-80 16-32 3-72 5-120 5h-322c-48 0-88-2-121-5-32-2-59-8-80-16-22-9-38-21-49-37-12-16-20-37-26-64-5-26-8-59-8-97-1-39-2-85-2-138 0-54 1-100 2-139 1-38 4-70 9-97 5-26 13-47 25-64 11-16 27-28 49-36 21-9 48-15 80-18 33-2 73-4 121-4z" horiz-adv-x="1181" />

<glyph glyph-name="style3-r" unicode="&#xe845;" d="M1005-150h-109v164c0 26-1 49-2 68-1 19-4 36-10 50-5 13-14 24-25 33-12 8-29 14-50 19-22 5-49 8-83 9-33 2-74 3-122 3h-491v-346h-109v874h618c67 0 123-3 168-8 46-4 84-11 114-21 30-9 53-21 68-35 17-14 29-30 36-49 7-19 12-41 13-64 1-24 2-50 2-78 0-36-3-68-8-96-5-27-13-51-25-70-13-19-29-35-49-47-20-11-45-19-75-24 30-4 54-12 72-24 19-11 33-26 42-44 10-18 17-40 20-65 3-25 5-53 5-85v-164z m-892 437h509c49 0 89 1 122 2 34 2 61 5 83 10 21 4 38 11 50 19 12 9 20 20 26 33 5 14 8 30 9 49 1 19 2 42 2 69 0 25-1 46-2 64-1 18-4 33-9 45-6 12-14 21-26 29-12 7-29 12-50 16-22 4-49 7-83 8-33 1-73 2-122 2h-509v-346z" horiz-adv-x="1029" />

<glyph glyph-name="style3-s" unicode="&#xe846;" d="M574 356c58 0 108-2 150-7 41-5 77-12 105-22 29-9 51-21 68-35 17-14 30-30 40-48 9-17 15-37 17-59 3-23 5-46 5-72 0-26-3-50-7-73-5-23-13-43-25-62-12-19-28-36-48-51-20-14-46-27-77-37-32-10-69-18-114-23-43-6-95-9-154-9h-141c-53 0-100 2-140 6-39 4-74 11-102 19-29 8-53 19-72 31-18 13-34 28-45 45-11 17-19 37-23 59-5 22-7 46-7 73h106c0-34 5-60 15-78 9-19 25-33 47-43 22-9 51-15 87-18 36-2 81-3 134-3h141c62 0 114 3 154 9 41 6 74 15 98 28 25 13 42 30 52 50 10 21 15 47 15 77 0 30-4 54-11 74-6 20-20 36-40 48-20 12-48 20-85 25-36 5-84 8-143 8h-146c-65 0-120 2-167 7-46 4-85 11-116 20-31 9-56 21-75 34-19 13-33 29-43 46-10 18-16 37-19 58-3 21-4 44-4 69 0 26 2 50 6 72 5 22 14 42 26 59 13 18 30 35 52 49 21 14 49 25 83 34 34 10 75 17 123 22 48 5 105 7 169 7h107c53 0 99-2 139-6 40-4 74-10 103-18 28-8 52-19 71-31 19-12 34-27 45-44 12-17 20-37 24-58 5-22 7-46 7-73h-106c0 33-5 59-15 78-9 19-25 33-47 42-22 10-51 16-88 18-36 2-80 4-133 4h-107c-70 0-128-3-174-8-46-5-82-13-109-25-26-12-44-28-55-47-10-20-15-45-15-75 0-19 1-35 4-49 2-15 7-27 15-38 8-11 19-20 34-28 14-7 33-13 57-18 23-5 52-8 86-10 34-2 75-3 122-3h146z" horiz-adv-x="962" />

<glyph glyph-name="style3-t" unicode="&#xe847;" d="M987 724v-91h-437v-783h-109v783h-437v91h983z" horiz-adv-x="990" />

<glyph glyph-name="style3-u" unicode="&#xe848;" d="M1042 726v-428c0-51-1-97-3-139-1-41-5-79-12-112-7-33-19-62-34-86-16-25-38-45-67-62-29-16-66-28-111-36-45-8-100-12-166-12h-251c-65 0-120 4-165 12-45 8-82 20-111 36-29 17-51 37-67 62-16 24-28 53-35 86-7 33-11 71-12 112-1 42-2 88-2 139v428h107v-428c0-54 1-100 1-139 1-38 5-70 10-97 5-26 13-47 24-64 12-16 28-28 49-36 22-9 48-15 81-18 33-2 73-4 120-4h251c48 0 88 2 120 4 33 3 60 9 81 18 21 8 37 20 49 36 11 17 20 38 25 64 6 27 9 59 9 97 1 39 2 85 2 139l-1 428h108z" horiz-adv-x="1048" />

<glyph glyph-name="style3-v" unicode="&#xe849;" d="M972 724h128l-474-874h-145l-474 874h128l418-801 419 801z" horiz-adv-x="1107" />

<glyph glyph-name="style3-w" unicode="&#xe84a;" d="M867 724h128l355-783 345 783h128l-401-874h-145l-346 765-346-765h-146l-437 874h128l382-783 355 783z" horiz-adv-x="1825" />

<glyph glyph-name="style3-x" unicode="&#xe84b;" d="M651 311l514-461h-155l-435 390-420-390h-155l497 461-461 413h155l381-343 370 343h154l-445-413z" horiz-adv-x="1165" />

<glyph glyph-name="style3-y" unicode="&#xe84c;" d="M1 724h145l401-428 400 428h146l-492-510v-364h-109v364l-491 510z" horiz-adv-x="1097" />

<glyph glyph-name="style3-z" unicode="&#xe84d;" d="M5-150v91l846 692h-809v91h965v-91l-850-692h868v-91h-1020z" horiz-adv-x="1029" />
</font>
</defs>
</svg>
